<?xml version="1.0" standalone="no"?><!DOCTYPE svg PUBLIC "-//W3C//DTD SVG 1.1//EN" "http://www.w3.org/Graphics/SVG/1.1/DTD/svg11.dtd"><svg t="1562210330538" class="icon" viewBox="0 0 1024 1024" version="1.1" xmlns="http://www.w3.org/2000/svg" p-id="1617" xmlns:xlink="http://www.w3.org/1999/xlink" width="200" height="200"><defs><style type="text/css"></style></defs><path d="M1017.344 386.176l-170.816-280.896A44.8 44.8 0 0 0 832 90.624a66.432 66.432 0 0 0-41.792-14.592h-169.6c-9.728 40.832-60.928 72-108.544 72.256v-0.128c-47.616-0.192-98.88-31.36-108.672-72.192h-169.6c-15.744 0-30.336 5.376-41.792 14.592a44.8 44.8 0 0 0-14.528 14.656L6.656 386.048a44.928 44.928 0 0 0 15.04 62.016l100.864 61.312a44.8 44.8 0 0 0 23.424 6.592 45.568 45.568 0 0 0 38.592-21.696l55.04-90.56 29.056-47.808v545.6a67.84 67.84 0 0 0 67.776 67.776h175.488v0.128h175.616a67.84 67.84 0 0 0 67.776-67.776V356.032l29.056 47.808 55.04 90.56a45.632 45.632 0 0 0 38.592 21.696 44.16 44.16 0 0 0 23.424-6.592l100.864-61.376a44.608 44.608 0 0 0 20.352-27.84 44.352 44.352 0 0 0-5.312-34.112z m-134.272 64.064l-76.544-125.888a59.328 59.328 0 0 0-83.84-22.016 59.392 59.392 0 0 0-27.584 55.424v543.872a7.488 7.488 0 0 1-7.488 7.488H512.064v-0.128H336.448a7.488 7.488 0 0 1-7.488-7.488V357.632c0.128-1.728 0.256-3.392 0.256-5.12s-0.128-3.328-0.256-5.12a59.136 59.136 0 0 0-59.2-54.208 59.328 59.328 0 0 0-52.288 31.04L140.928 450.112 65.856 404.48l100.096-164.608 55.04-90.496 0.192 0.128 6.08-9.6 0.064-0.064 0.064 0.064a8.576 8.576 0 0 1 2.624-2.624c0.576-0.384 1.152-0.576 1.728-0.768s1.344-0.32 1.92-0.32h137.856c28.416 43.008 80.704 72 140.416 72.128v0.128c59.776-0.064 112.064-29.12 140.416-72.192h137.856c0.704 0 1.344 0.064 1.92 0.32a7.936 7.936 0 0 1 4.352 3.392l0.064-0.064 0.064 0.064 6.08 9.6 0.192-0.128 55.04 90.496 100.096 164.608-74.944 45.696z" p-id="1618"></path></svg>